# xmcd
#
# Track frame offsets:
#	150
#	16050
#	41400
#	63871
#	85846
#	105825
#	136350
#	158414
#	185789
#	211837
#	237227
#	252996
#	273810
#	288164
#
# Disc length: 4246 seconds
#
# Revision: 0
# Processed by: cddbd v1.5.2PL0 Copyright (c) Steve Scherf et al.
# Submitted via: EZCDAudioConverter 3.1.0.1
#
DISCID=ac10940e
DTITLE=İzollu Memet - Kuda Herım/Gulamın
DYEAR=2015
DGENRE=Kurdish
TTITLE0=Kuda Herım
TTITLE1=Porzare
TTITLE2=Dıren
TTITLE3=Bı Xatıre Te Aze Herım
TTITLE4=Ez Koleme Bıkım
TTITLE5=Az Dınkırım
TTITLE6=Gulamın
TTITLE7=Nab Dostamına
TTITLE8=Aha Gidiyorum
TTITLE9=Halebe
TTITLE10=Ate Meke
TTITLE11=Tu Neyi
TTITLE12=Kıda Heri lele
TTITLE13=Delal Delal
EXTD=
EXTT0=
EXTT1=
EXTT2=
EXTT3=
EXTT4=
EXTT5=
EXTT6=
EXTT7=
EXTT8=
EXTT9=
EXTT10=
EXTT11=
EXTT12=
EXTT13=
PLAYORDER=
